<svg width="125" height="125" viewBox="0 0 125 125" fill="none" xmlns="http://www.w3.org/2000/svg">
<path d="M39.0437 44.2562C39.0437 41.3751 41.3751 39.0437 44.2562 39.0437H80.7437C83.6249 39.0437 85.9562 41.3751 85.9562 44.2562V80.7437C85.9562 83.6248 83.6249 85.9562 80.7437 85.9562H44.2562C41.3751 85.9562 39.0437 83.6248 39.0437 80.7437V44.2562Z" fill="white"/>
<path d="M42.9531 42.9531V82.0469H82.0469V42.9531H42.9531ZM62.0979 71.6219L61.1052 67.8296H55.9996L55.0121 71.6219H51.0518L56.8396 53.0931H60.2653L66.0938 71.6219H62.0979ZM71.4284 71.6219H67.8143V57.8525H71.4284V71.6219ZM71.0365 55.6637C70.6853 56.0302 70.2068 56.2134 69.6061 56.2134C69.0004 56.2134 68.527 56.0302 68.1757 55.6637C67.8194 55.2972 67.6463 54.8391 67.6463 54.2893C67.6463 53.7294 67.8245 53.2712 68.1808 52.9149C68.5371 52.5586 69.0105 52.3804 69.6061 52.3804C70.1966 52.3804 70.6751 52.5586 71.0314 52.9149C71.3877 53.2712 71.5659 53.7294 71.5659 54.2893C71.5659 54.8391 71.3877 55.2972 71.0365 55.6637Z" fill="black"/>
<path d="M56.8208 64.7132H60.2822L58.5515 58.1111L56.8208 64.7132Z" fill="#1C0802"/>
</svg>
