<svg width="125" height="125" viewBox="0 0 125 125" fill="none" xmlns="http://www.w3.org/2000/svg">
<path d="M84.6531 37.7406H40.3469L44.2562 82.0469L62.5 87.2593L80.7438 82.0469L84.6531 37.7406Z" fill="white"/>
<path d="M62.4923 41.6495V83.2172L77.0863 79.0482L80.3441 41.6495H62.4923Z" fill="white"/>
<path d="M74.3563 48.1661H62.4958V53.3786H68.8791L68.4922 58.5911H62.4958V63.8036H68.2275L67.8406 69.6677L62.4958 71.49V76.9672L72.7884 73.5771L73.7047 58.5911L74.3563 48.1661Z" fill="black"/>
<path d="M62.5037 48.1661V53.3786H50.908L50.516 48.1661H62.5037ZM56.5073 58.5911L56.772 63.8036H62.5037V58.5911H56.5073ZM57.0316 66.4099H51.8191L52.2111 73.5771L62.5037 76.9672V71.49L57.1589 69.6677L57.0316 66.4099Z" fill="black"/>
</svg>
