<svg width="125" height="125" viewBox="0 0 125 125" fill="none" xmlns="http://www.w3.org/2000/svg">
<path d="M72.25 52.75C74.8359 52.75 77.3158 51.7228 79.1443 49.8943C80.9728 48.0658 82 45.5859 82 43C82 40.4141 80.9728 37.9342 79.1443 36.1057C77.3158 34.2772 74.8359 33.25 72.25 33.25H52.75C50.1641 33.25 47.6842 34.2772 45.8557 36.1057C44.0272 37.9342 43 40.4141 43 43C43 45.5859 44.0272 48.0658 45.8557 49.8943C47.6842 51.7228 50.1641 52.75 52.75 52.75C50.1641 52.75 47.6842 53.7772 45.8557 55.6057C44.0272 57.4342 43 59.9141 43 62.5C43 65.0859 44.0272 67.5658 45.8557 69.3943C47.6842 71.2228 50.1641 72.25 52.75 72.25C50.8216 72.25 48.9366 72.8218 47.3332 73.8932C45.7298 74.9645 44.4801 76.4873 43.7422 78.2688C43.0042 80.0504 42.8111 82.0108 43.1873 83.9021C43.5636 85.7934 44.4922 87.5307 45.8557 88.8943C47.2193 90.2579 48.9566 91.1865 50.8479 91.5627C52.7392 91.9389 54.6996 91.7458 56.4812 91.0078C58.2627 90.2699 59.7855 89.0202 60.8568 87.4168C61.9282 85.8134 62.5 83.9284 62.5 82V52.75H72.25Z" fill="white"/>
<path d="M72.2656 72.25C77.6504 72.25 82.0156 67.8848 82.0156 62.5C82.0156 57.1152 77.6504 52.75 72.2656 52.75C66.8808 52.75 62.5156 57.1152 62.5156 62.5C62.5156 67.8848 66.8808 72.25 72.2656 72.25Z" fill="white"/>
</svg>
