<svg width="125" height="125" viewBox="0 0 125 125" fill="none" xmlns="http://www.w3.org/2000/svg">
<path fill-rule="evenodd" clip-rule="evenodd" d="M62.5 31.0015C45.1047 31.0015 31 45.4577 31 63.303C31 77.5765 40.0281 89.6702 52.5437 93.9452C54.1187 94.2405 54.6953 93.2421 54.6953 92.3843C54.6953 91.6108 54.6672 89.5858 54.6531 86.8858C45.8922 88.8405 44.0359 82.5546 44.0359 82.5546C42.6016 78.828 40.5344 77.8296 40.5344 77.8296C37.6797 75.8187 40.7453 75.8608 40.7453 75.8608C43.9094 76.0858 45.5688 79.1937 45.5688 79.1937C48.3813 84.1296 52.9375 82.7093 54.7375 81.8796C55.0188 79.7983 55.8344 78.364 56.7344 77.5624C49.7453 76.7468 42.3906 73.9765 42.3906 61.6015C42.3906 58.0718 43.6141 55.189 45.625 52.939C45.3016 52.1233 44.2188 48.8327 45.9344 44.389C45.9344 44.389 48.5781 43.5171 54.5969 47.6937C57.1141 46.9765 59.8 46.6249 62.4859 46.6108C65.1578 46.6249 67.8578 46.9765 70.375 47.6937C76.3937 43.5171 79.0234 44.389 79.0234 44.389C80.7391 48.8327 79.6562 52.1233 79.3328 52.939C81.3438 55.203 82.5672 58.0858 82.5672 61.6015C82.5672 74.0046 75.1984 76.7327 68.1812 77.5343C69.3062 78.5327 70.3188 80.5015 70.3188 83.5108C70.3188 87.828 70.2766 91.3155 70.2766 92.3702C70.2766 93.228 70.8391 94.2405 72.4422 93.9171C84.9859 89.6562 94 77.5624 94 63.303C94 45.4577 79.8953 31.0015 62.5 31.0015Z" fill="white"/>
</svg>
