<svg width="125" height="125" viewBox="0 0 125 125" fill="none" xmlns="http://www.w3.org/2000/svg">
<path fill-rule="evenodd" clip-rule="evenodd" d="M62.5 93.7188C79.7416 93.7188 93.7188 79.7416 93.7188 62.5C93.7188 45.2584 79.7416 31.2812 62.5 31.2812C45.2584 31.2812 31.2812 45.2584 31.2812 62.5C31.2812 79.7416 45.2584 93.7188 62.5 93.7188Z" fill="white"/>
<path fill-rule="evenodd" clip-rule="evenodd" d="M62.5 66.0986L80.5108 50.4893H44.4892L62.5 66.0986ZM57.6353 64.3707L62.5 68.3638L67.2885 64.3707L80.5108 75.7044H44.4892L57.6353 64.3707ZM43.2885 74.5037V51.69L56.4964 63.0968L43.2885 74.5037ZM81.7115 74.5037V51.69L68.5036 63.0968L81.7115 74.5037Z" fill="black"/>
</svg>
