<svg width="125" height="125" viewBox="0 0 125 125" fill="none" xmlns="http://www.w3.org/2000/svg">
<path d="M84.6531 37.7406H40.3469L44.2563 82.0469L62.5 87.2593L80.7438 82.0469L84.6531 37.7406Z" fill="white"/>
<path d="M62.4923 41.6495V83.2172L77.0863 79.0482L80.3441 41.6495H62.4923Z" fill="white"/>
<path d="M62.4963 63.8036V58.5911H73.7052L72.7889 73.5771L62.4963 76.9672V71.49L67.8411 69.6677L68.228 63.8036H62.4963ZM74.092 53.3786L74.484 48.1661H62.4963V53.3786H74.092Z" fill="black"/>
<path d="M62.5042 71.49V76.9672L52.2116 73.5771L51.6873 66.4099H56.8998L57.1594 69.6677L62.5042 71.49ZM56.1209 53.3786H62.5042V48.1661H50.6437L51.56 63.8036H62.5042V58.5911H56.5078L56.1209 53.3786Z" fill="black"/>
</svg>
