<svg width="125" height="125" viewBox="0 0 125 125" fill="none" xmlns="http://www.w3.org/2000/svg">
<path d="M37.7406 44.2562C37.7406 41.3751 40.072 39.0437 42.9531 39.0437H79.4406C82.3218 39.0437 84.6531 41.3751 84.6531 44.2562V80.7437C84.6531 83.6248 82.3218 85.9562 79.4406 85.9562H42.9531C40.072 85.9562 37.7406 83.6248 37.7406 80.7437V44.2562Z" fill="white"/>
<path d="M65.4768 60.6189C64.815 60.6189 64.3314 60.8836 64.0311 61.4181C63.7257 61.9526 63.5679 62.9045 63.5679 64.2687V65.2256C63.5679 66.5797 63.7155 67.5316 64.0006 68.0661C64.2907 68.6056 64.7794 68.8754 65.4666 68.8754C66.1792 68.8754 66.7188 68.5598 67.0802 67.9235V61.637C66.7239 60.9549 66.1894 60.6189 65.4768 60.6189Z" fill="#16020B"/>
<path d="M41.65 42.9531V82.0469H80.7438V42.9531H41.65ZM57.4708 71.6219H53.7294V53.0931H57.4708V71.6219ZM70.7056 71.6219H67.4325L67.2696 70.222C66.5315 71.3266 65.5797 71.8764 64.4191 71.8764C62.9734 71.8764 61.8739 71.3266 61.1154 70.222C60.357 69.1174 59.9701 67.4987 59.9497 65.3608V64.3172C59.9497 62.0622 60.3315 60.3773 61.0951 59.2676C61.8586 58.1529 62.9734 57.598 64.4292 57.598C65.4931 57.598 66.3737 58.0561 67.0762 58.9724V52.075H70.7056V71.6219Z" fill="black"/>
</svg>
