<svg width="125" height="125" viewBox="0 0 125 125" fill="none" xmlns="http://www.w3.org/2000/svg">
<path d="M39.0437 85.9562V39.0437H85.9562V85.9562H39.0437Z" fill="white"/>
<path d="M69.7089 74.1528C70.6107 75.6175 71.5906 77.021 73.6665 77.021C75.4101 77.021 76.3249 76.1544 76.3249 74.9555C76.3249 73.5208 75.3788 73.0113 73.4606 72.176L72.409 71.7277C69.374 70.4402 67.3555 68.8269 67.3555 65.4193C67.3555 62.2787 69.7597 59.8888 73.5166 59.8888C76.1919 59.8888 78.114 60.8153 79.5006 63.2417L76.2245 65.3359C75.5039 64.0484 74.7246 63.5415 73.5166 63.5415C72.2839 63.5415 71.5033 64.3194 71.5033 65.3359C71.5033 66.5921 72.2852 67.1003 74.09 67.8783L75.1416 68.3265C78.7187 69.8499 80.7359 71.4058 80.7359 74.9034C80.7359 78.672 77.7596 80.7375 73.7642 80.7375C69.8562 80.7375 67.6369 78.7763 66.4016 76.3486L69.7089 74.1528Z" fill="#000001"/>
<path d="M54.6262 74.2596C55.2856 75.4402 56.2877 76.3485 57.7289 76.3485C59.1076 76.3485 59.9012 75.8038 59.9012 73.6862V59.8875H64.2445V74.3534C64.2445 78.7411 61.6995 80.7375 57.983 80.7375C54.6249 80.7375 52.2011 78.4622 51.2133 76.3485L54.6262 74.2596Z" fill="#000001"/>
</svg>
