<svg width="125" height="125" viewBox="0 0 125 125" fill="none" xmlns="http://www.w3.org/2000/svg">
<path d="M74.2218 75.5328C74.2218 75.2681 74.2371 75.0441 74.2473 74.7947C74.232 74.4689 74.2218 74.2296 74.2218 74.2296C74.2218 74.2296 74.2371 74.2194 74.2625 74.1991C74.456 70.7173 75.418 69.3735 76.4463 68.6099C76.3038 68.4114 76.1358 68.1976 75.9831 67.994C75.5504 67.4239 75.0057 66.7163 74.4305 65.8102L74.3236 65.6066C74.2371 65.3928 74.0233 65.0212 73.7535 64.5376C72.2162 61.7481 69.0042 55.9452 71.2032 52.2801C72.1653 50.6767 73.9673 49.7502 76.5735 49.5212C75.5046 46.4975 71.5188 39.1929 62.4733 39.0453H62.4682C54.5935 38.918 52.0076 46.0699 51.1677 50.3458C52.3232 49.8571 53.6518 49.5568 54.8633 49.5568C54.8785 49.5568 54.8989 49.5568 54.9193 49.5568C57.9022 49.5772 59.9536 51.1704 60.5492 53.9294C60.9869 55.9502 61.1956 57.7166 61.1906 59.3404C61.1804 62.8833 60.4626 64.7463 59.8365 66.3905L59.6329 66.9199C59.47 67.3577 59.302 67.7598 59.1392 68.1416C58.9763 68.5335 58.8286 68.8746 58.7268 69.1902C59.358 69.3327 59.8518 69.5312 60.1929 69.684L60.3863 69.7705C60.4474 69.7959 60.5085 69.8265 60.5644 69.857C61.6691 70.529 62.3613 71.5623 62.509 72.7687C62.5853 73.4203 62.5751 77.8438 62.5446 81.7022C62.6617 83.377 62.9416 84.7819 63.3183 85.7999C63.8528 87.2507 65.1814 90.0249 67.7418 89.8671C69.5285 89.7551 71.244 88.6658 72.3842 87.2354C73.6059 85.6981 74.0538 83.9929 74.2269 82.0789V75.5328H74.2218Z" fill="white"/>
<path d="M50.937 68.9103C48.8347 66.7164 47.8115 63.764 48.1984 61.0152C48.57 58.3632 48.3562 55.7722 48.2442 54.3724C48.2086 53.9091 48.1831 53.563 48.1831 53.3696C48.1831 53.3594 48.1882 53.3492 48.1882 53.339C48.1882 53.3339 48.1831 53.3339 48.1831 53.3288C48.3409 49.3889 49.8578 43.1787 54.037 39.4882C52.0059 38.684 48.6871 37.6303 45.5769 37.7422C40.7003 37.9204 35.9816 41.2902 36.455 50.7735C36.6331 54.3316 40.6545 75.6652 46.1521 75.5329C46.936 75.5125 47.7504 75.0086 48.5903 74.0007C49.9138 72.4074 51.2017 70.9617 52.1179 69.9539C51.7056 69.6433 51.3137 69.3023 50.937 68.9103Z" fill="white"/>
<path d="M79.4652 50.4254C79.4855 50.629 79.4652 50.7969 79.4346 50.9598C79.4753 52.1561 79.3481 53.3217 79.2157 54.4467C79.119 55.2764 79.0223 56.1316 78.9918 56.9919C78.9663 57.8318 79.0834 58.6615 79.2106 59.537C79.5008 61.5935 79.8062 63.9147 78.2129 66.6228C78.5031 67.0097 78.7627 67.366 78.9714 67.7121C84.978 57.9743 87.3959 46.3938 85.09 43.4414C81.5929 38.9772 76.752 37.6842 72.919 37.7453C71.7177 37.7657 70.6283 37.9286 69.6968 38.1271C76.3092 41.334 79.2565 48.206 79.4652 50.4254Z" fill="white"/>
<path d="M84.6411 70.3974C81.1695 71.1151 79.4998 70.7333 78.6854 70.2345C78.5581 70.3261 78.4258 70.4076 78.3036 70.4839C77.82 70.7741 77.0514 71.2424 76.863 74.1082C76.975 74.1286 77.0667 74.1388 77.1837 74.1642L77.7538 74.2151C79.4744 74.2915 81.7243 73.813 83.0478 73.1971C85.8933 71.8736 87.4458 69.8222 84.6411 70.3974Z" fill="white"/>
<path d="M59.9342 73.0689C59.8833 72.682 59.6746 72.3664 59.2928 72.117L59.1503 72.0559C58.682 71.8472 58.1475 71.613 57.2974 71.613H57.2923C57.1243 71.6283 56.9614 71.6385 56.7985 71.6385C56.7273 71.6385 56.6611 71.6283 56.5949 71.6283C55.979 72.1017 55.0984 72.4682 52.9248 72.9162C49.0409 73.9037 51.3366 75.0745 52.823 75.2526C54.2635 75.614 57.6893 76.0518 59.9647 74.1989C59.9596 73.6135 59.9494 73.2165 59.9342 73.0689Z" fill="white"/>
<path d="M58.1842 55.3333C57.8075 55.7303 57.2068 56.0714 56.54 55.9645C55.4609 55.7914 54.6362 54.4883 54.6973 53.9996C54.7533 53.511 55.6746 53.2564 56.7487 53.4346C57.1254 53.4957 57.4664 53.6026 57.7515 53.7298C57.3341 52.8339 56.5807 52.3147 55.4303 52.1926C53.3891 51.9635 51.2257 53.0274 50.793 53.6179C50.7981 53.7655 50.8185 53.9487 50.8337 54.1625C50.9559 55.6591 51.1799 58.4435 50.7676 61.3806C50.4978 63.3149 51.2817 65.5089 52.8088 67.1072C53.7963 68.1355 54.9467 68.787 56.087 68.9805C56.2295 68.3544 56.4891 67.7486 56.7538 67.1225C56.9014 66.7764 57.0592 66.4099 57.2068 66.0128L57.4155 65.458C57.9907 63.9512 58.5863 62.3936 58.6016 59.3292C58.6067 58.1482 58.4591 56.8044 58.1842 55.3333Z" fill="white"/>
<path d="M76.628 59.9064C76.4905 58.9545 76.3531 57.9721 76.3836 56.9031C76.4142 55.936 76.5211 55.0248 76.628 54.1442C76.7043 53.4468 76.7705 52.7799 76.8061 52.1233C75.1263 52.2607 74.0116 52.7494 73.4822 53.5689C73.701 53.4926 73.9454 53.4315 74.2203 53.401C75.3859 53.2483 76.2309 53.5842 76.3277 54.2307C76.404 54.7041 76.0019 55.1469 75.8237 55.32C75.4623 55.6713 75.0093 55.8952 74.546 55.9563C74.4646 55.9665 74.3781 55.9716 74.2966 55.9716C73.8334 55.9716 73.3956 55.8138 73.0597 55.5796C73.2073 58.1502 75.1009 61.5913 76.0324 63.2762C76.236 63.6376 76.3887 63.9278 76.516 64.1721C77.025 62.7163 76.8367 61.3877 76.628 59.9064Z" fill="white"/>
</svg>
