<svg width="125" height="125" viewBox="0 0 125 125" fill="none" xmlns="http://www.w3.org/2000/svg">
<path d="M39.0437 44.2562C39.0437 41.3751 41.3751 39.0437 44.2562 39.0437H80.7437C83.6249 39.0437 85.9562 41.3751 85.9562 44.2562V80.7437C85.9562 83.6248 83.6249 85.9562 80.7437 85.9562H44.2562C41.3751 85.9562 39.0437 83.6248 39.0437 80.7437V44.2562Z" fill="white"/>
<path d="M57.3153 56.2208H54.709V61.9984H57.2797C57.9923 61.9984 58.5421 61.7642 58.934 61.2959C59.326 60.8327 59.5194 60.1506 59.5194 59.2598C59.5194 58.3333 59.3209 57.6003 58.9188 57.0505C58.5217 56.5059 57.9872 56.2259 57.3153 56.2208Z" fill="#020F16"/>
<path d="M42.9531 42.9531V82.0469H82.0469V42.9531H42.9531ZM61.6703 63.5282C60.5962 64.5819 59.1047 65.1063 57.1959 65.1063H54.7016V71.6219H50.9602V53.0931H57.2722C59.1047 53.0931 60.5657 53.6632 61.655 54.7983C62.7443 55.9335 63.289 57.4097 63.289 59.2269C63.289 61.0442 62.7494 62.4745 61.6703 63.5282ZM73.8158 70.7565C72.8894 71.5048 71.6728 71.8764 70.1762 71.8764C69.1632 71.8764 68.2724 71.6779 67.5038 71.2859C66.7301 70.8889 66.1243 70.3391 65.6865 69.6366C65.2488 68.9342 65.0299 68.1706 65.0299 67.3562H68.4557C68.476 67.9874 68.6186 68.4557 68.8935 68.7713C69.1683 69.0869 69.6214 69.2396 70.2475 69.2396C71.2146 69.2396 71.6982 68.8069 71.6982 67.9314C71.6982 67.626 71.5557 67.3409 71.2605 67.0864C70.9652 66.8268 70.3188 66.4755 69.3109 66.0378C67.8245 65.432 66.8064 64.811 66.2465 64.1645C65.6916 63.5181 65.4117 62.7189 65.4117 61.7568C65.4117 60.5555 65.8494 59.5578 66.7199 58.7739C67.5852 57.99 68.7407 57.598 70.1711 57.598C71.683 57.598 72.8894 57.99 73.8005 58.7688C74.7066 59.5476 75.1597 60.5962 75.1597 61.9095H71.5608C71.5608 60.7896 71.0925 60.2297 70.1609 60.2297C69.7792 60.2297 69.4636 60.3519 69.2192 60.586C68.9698 60.8253 68.8476 61.1562 68.8476 61.5786C68.8476 61.8841 68.9851 62.1539 69.2549 62.388C69.5297 62.6222 70.166 62.953 71.179 63.3857C72.645 63.9304 73.6835 64.5361 74.2892 65.203C74.9 65.8698 75.2004 66.7301 75.2004 67.7889C75.2004 69.0207 74.7372 70.0082 73.8158 70.7565Z" fill="black"/>
</svg>
