<svg width="125" height="125" viewBox="0 0 125 125" fill="none" xmlns="http://www.w3.org/2000/svg">
<path d="M62.5704 37.7453C60.5445 37.7504 59.1395 37.9285 57.4393 38.2238C52.4254 39.0942 51.5142 40.9318 51.5142 44.3067V49.4734H63.2423V52.0797H45.4007C41.9647 52.0797 38.9564 53.6984 38.0045 57.5772C36.9304 62.0313 36.8795 64.8208 38.0045 69.4682C38.8596 72.9347 40.738 75.5359 44.1739 75.5359H48.908V68.8828C48.908 65.0193 52.4101 61.2015 56.4213 61.2015H65.8486C69.1369 61.2015 72.3642 58.7734 72.3642 55.4953V44.3067C72.3642 41.1303 70.0736 38.7532 66.8666 38.2187C66.9481 38.2136 64.5811 37.7351 62.5704 37.7453ZM56.0751 42.9578C57.1441 42.9578 58.0298 43.8384 58.0298 44.9176C58.0298 46.0018 57.1441 46.8672 56.0751 46.8672C54.9858 46.8672 54.1205 46.0018 54.1205 44.9176C54.1205 43.8435 54.9858 42.9578 56.0751 42.9578Z" fill="white"/>
<path d="M61.2986 87.2547C63.3246 87.2496 64.7295 87.0715 66.4297 86.7762C71.4437 85.9058 72.3548 84.0682 72.3548 80.6933V75.5266H60.6267V72.9204H78.4734C81.9043 72.9204 84.9127 71.3016 85.8646 67.4228C86.9437 62.9688 86.9895 60.1793 85.8646 55.5318C85.0094 52.0653 83.1311 49.4641 79.6951 49.4641H74.9611V56.1172C74.9611 59.9807 71.4589 63.7985 67.4477 63.7985H58.0204C54.7321 63.7985 51.5048 66.2266 51.5048 69.5048V80.6933C51.5048 83.8697 53.7955 86.2469 57.0024 86.7813C56.9209 86.7864 59.2879 87.2649 61.2986 87.2547ZM67.7939 82.0422C66.7249 82.0422 65.8392 81.1616 65.8392 80.0825C65.8392 78.9982 66.7249 78.1329 67.7939 78.1329C68.8832 78.1329 69.7486 78.9982 69.7486 80.0825C69.7486 81.1565 68.8832 82.0422 67.7939 82.0422Z" fill="white"/>
</svg>
