<svg width="125" height="125" viewBox="0 0 125 125" fill="none" xmlns="http://www.w3.org/2000/svg">
<path d="M62.5 31.3C45.2687 31.3 31.3 45.2688 31.3 62.5C31.3 79.7313 45.2687 93.7001 62.5 93.7001C79.7313 93.7001 93.7 79.7313 93.7 62.5C93.7 45.2688 79.7313 31.3 62.5 31.3ZM78.7166 51.036L73.1751 77.4907C73.1081 77.8106 72.9617 78.1086 72.7495 78.3573C72.5372 78.6059 72.2659 78.7972 71.9604 78.9136C71.6549 79.03 71.325 79.0678 71.0011 79.0234C70.6772 78.9791 70.3697 78.8541 70.1067 78.6598L62.0464 72.7049L57.1631 77.3118C57.0992 77.3721 57.0239 77.419 56.9416 77.4499C56.8593 77.4808 56.7717 77.495 56.6839 77.4917C56.5961 77.4883 56.5098 77.4675 56.4301 77.4305C56.3504 77.3935 56.2789 77.3409 56.2198 77.2759L56.1148 77.1606L56.9633 68.9493L72.2567 54.9762C72.3323 54.9072 72.3794 54.8124 72.3885 54.7104C72.3977 54.6085 72.3683 54.5068 72.3061 54.4254C72.244 54.3441 72.1536 54.289 72.0528 54.271C71.9521 54.253 71.8482 54.2734 71.7618 54.3282L52.2034 66.7071L43.78 63.8781C43.556 63.8028 43.3608 63.6601 43.2212 63.4696C43.0815 63.279 43.0042 63.0499 43 62.8136C42.9957 62.5774 43.0646 62.3456 43.1973 62.1501C43.33 61.9546 43.5199 61.8049 43.741 61.7216L76.6984 49.3063C76.9527 49.2107 77.2279 49.1851 77.4954 49.2322C77.763 49.2793 78.0129 49.3974 78.2192 49.5742C78.4254 49.7509 78.5804 49.9799 78.6679 50.237C78.7554 50.4942 78.7722 50.7701 78.7166 51.036Z" fill="white"/>
</svg>
