<svg width="125" height="125" viewBox="0 0 125 125" fill="none" xmlns="http://www.w3.org/2000/svg">
<path d="M62.5 31.3C45.2687 31.3 31.3 45.2688 31.3 62.5C31.3 79.7313 45.2687 93.7 62.5 93.7C79.7313 93.7 93.7 79.7313 93.7 62.5C93.7 45.2688 79.7313 31.3 62.5 31.3ZM79.1192 73.091H75.1601C74.7313 73.0915 74.3079 72.9953 73.9214 72.8096C73.5349 72.6239 73.1952 72.3535 72.9276 72.0185C71.7403 70.5278 69.4013 67.8847 66.9454 66.7495C66.8031 66.6829 66.6464 66.6532 66.4897 66.6632C66.3329 66.6733 66.1812 66.7226 66.0486 66.8068C65.916 66.891 65.8068 67.0072 65.731 67.1448C65.6552 67.2823 65.6153 67.4368 65.615 67.5938V71.5094C65.615 71.7171 65.5742 71.9227 65.4947 72.1146C65.4153 72.3065 65.2988 72.4809 65.152 72.6277C65.0052 72.7746 64.8308 72.8911 64.639 72.9706C64.4471 73.0501 64.2415 73.091 64.0338 73.091H62.2031C59.8224 73.091 54.6956 71.6418 50.6105 65.6909C47.1297 60.6209 45.5781 56.6916 44.6733 53.5058C44.6207 53.3191 44.6121 53.1227 44.6482 52.9321C44.6842 52.7415 44.764 52.5618 44.8811 52.4072C44.9983 52.2526 45.1497 52.1273 45.3234 52.041C45.4972 51.9547 45.6886 51.9099 45.8826 51.9101H49.8876C50.2872 51.9097 50.6762 52.0384 50.9968 52.2769C51.3174 52.5154 51.5525 52.851 51.667 53.2338C52.4118 55.7248 54.3408 61.0984 57.7506 63.7743C57.8546 63.8562 57.9795 63.9072 58.1112 63.9215C58.2428 63.9358 58.3757 63.9128 58.4949 63.8551C58.614 63.7974 58.7145 63.7073 58.7849 63.5951C58.8552 63.483 58.8926 63.3533 58.8927 63.2209V56.9485C58.8927 55.7089 58.3555 54.4687 57.517 53.4995C57.3962 53.3604 57.3179 53.1896 57.2915 53.0073C57.265 52.825 57.2916 52.639 57.368 52.4714C57.4444 52.3038 57.5674 52.1617 57.7223 52.0621C57.8772 51.9625 58.0575 51.9095 58.2417 51.9095H64.4166C64.7346 51.9095 65.0395 52.0358 65.2644 52.2606C65.4892 52.4854 65.6156 52.7904 65.6156 53.1084V61.5573C65.6156 61.6797 65.6493 61.7996 65.7129 61.904C65.7766 62.0085 65.8677 62.0934 65.9764 62.1495C66.0851 62.2056 66.2072 62.2306 66.3292 62.222C66.4512 62.2133 66.5684 62.1713 66.6681 62.1004C67.8016 61.2936 68.7723 60.1017 69.6651 58.7619C70.7888 57.0766 72.16 54.2908 72.8479 52.845C72.9811 52.5649 73.1909 52.3283 73.4531 52.1627C73.7153 51.997 74.019 51.9091 74.3292 51.9091H78.6972C78.8796 51.909 79.059 51.9555 79.2183 52.0442C79.3777 52.1329 79.5118 52.2608 79.6079 52.4158C79.704 52.5709 79.759 52.7479 79.7675 52.93C79.776 53.1122 79.7379 53.2936 79.6567 53.4569C78.5545 55.6677 76.4076 59.7235 74.3874 62.103C74.0983 62.4452 73.9567 62.8881 73.9937 63.3346C74.0308 63.7811 74.2436 64.1946 74.5852 64.4844C75.9021 65.6096 77.9579 67.6897 80.1743 71.1545C80.2966 71.3442 80.3655 71.5632 80.3738 71.7887C80.3821 72.0142 80.3296 72.2378 80.2216 72.4359C80.1136 72.6341 79.9543 72.7995 79.7603 72.9148C79.5663 73.03 79.3449 73.0909 79.1192 73.091Z" fill="white"/>
</svg>
